<?xml version="1.0" encoding="utf-8"?>
<!-- Generator: Adobe Illustrator 21.0.2, SVG Export Plug-In . SVG Version: 6.00 Build 0)  -->
<svg version="1.1" id="Layer_1" xmlns="http://www.w3.org/2000/svg" xmlns:xlink="http://www.w3.org/1999/xlink" x="0px" y="0px"
	 viewBox="0 0 94 170.9" style="enable-background:new 0 0 94 170.9;" xml:space="preserve">
<style type="text/css">
	.st0{fill:#FF5A5F;}
</style>
<path class="st0" d="M91.5,142c-0.5-1.2-1-2.5-1.5-3.6c-0.8-1.8-1.6-3.5-2.3-5.1l-0.1-0.1c-6.9-15-14.3-30.2-22.1-45.2l-0.3-0.6
	c-0.8-1.5-1.6-3.1-2.4-4.7c-1-1.8-2-3.7-3.6-5.5c-3.2-4-7.8-6.2-12.7-6.2c-5,0-9.5,2.2-12.8,6c-1.5,1.8-2.6,3.7-3.6,5.5
	c-0.8,1.6-1.6,3.2-2.4,4.7l-0.3,0.6c-7.7,15-15.2,30.2-22.1,45.2l-0.1,0.2c-0.7,1.6-1.5,3.3-2.3,5.1c-0.5,1.1-1,2.3-1.5,3.6
	c-1.3,3.7-1.7,7.2-1.2,10.8c1.1,7.5,6.1,13.8,13,16.6c2.6,1.1,5.3,1.6,8.1,1.6c0.8,0,1.8-0.1,2.6-0.2c3.3-0.4,6.7-1.5,10-3.4
	c4.1-2.3,8-5.6,12.4-10.4c4.4,4.8,8.4,8.1,12.4,10.4c3.3,1.9,6.7,3,10,3.4c0.8,0.1,1.8,0.2,2.6,0.2c2.8,0,5.6-0.5,8.1-1.6
	c7-2.8,11.9-9.2,13-16.6C93.2,149.2,92.8,145.7,91.5,142z M46.4,147.2c-5.4-6.8-8.9-13.2-10.1-18.6c-0.5-2.3-0.6-4.3-0.3-6.1
	c0.2-1.6,0.8-3,1.6-4.2c1.9-2.7,5.1-4.4,8.8-4.4s7,1.6,8.8,4.4c0.8,1.2,1.4,2.6,1.6,4.2c0.3,1.8,0.2,3.9-0.3,6.1
	C55.3,133.9,51.8,140.3,46.4,147.2z M86.3,151.9c-0.7,5.2-4.2,9.7-9.1,11.7c-2.4,1-5,1.3-7.6,1c-2.5-0.3-5-1.1-7.6-2.6
	c-3.6-2-7.2-5.1-11.4-9.7c6.6-8.1,10.6-15.5,12.1-22.1c0.7-3.1,0.8-5.9,0.5-8.5c-0.4-2.5-1.3-4.8-2.7-6.8c-3.1-4.5-8.3-7.1-14.1-7.1
	s-11,2.7-14.1,7.1c-1.4,2-2.3,4.3-2.7,6.8c-0.4,2.6-0.3,5.5,0.5,8.5c1.5,6.6,5.6,14.1,12.1,22.2c-4.1,4.6-7.8,7.7-11.4,9.7
	c-2.6,1.5-5.1,2.3-7.6,2.6c-2.7,0.3-5.3-0.1-7.6-1c-4.9-2-8.4-6.5-9.1-11.7c-0.3-2.5-0.1-5,0.9-7.8c0.3-1,0.8-2,1.3-3.2
	c0.7-1.6,1.5-3.3,2.3-5l0.1-0.2c6.9-14.9,14.3-30.1,22-44.9l0.3-0.6c0.8-1.5,1.6-3.1,2.4-4.6c0.8-1.6,1.7-3.1,2.8-4.4
	c2.1-2.4,4.9-3.7,8-3.7s5.9,1.3,8,3.7c1.1,1.3,2,2.8,2.8,4.4c0.8,1.5,1.6,3.1,2.4,4.6l0.3,0.6c7.6,14.9,15,30.1,21.9,45v0.1
	c0.8,1.6,1.5,3.4,2.3,5c0.5,1.2,1,2.2,1.3,3.2C86.4,146.8,86.7,149.3,86.3,151.9z"/>
<g>
	<path class="st0" d="M31.7,47c0.7-0.2,3.2-0.2-0.3-3.9c4.8,5.3,14.6-6.4,1.6-10c-3.5-1-13.2-0.6-11.9,5.7c0.3,0.7,3.3,3.4,3.4,3.2
		c-3.9-0.6-1.3,5.1,2.7,5.6C28,47.6,31,47.2,31.7,47z M31.9,54.3c-7-4.9-14,1.6-6.8,4.2c5.1,1.9,5.7,1,10.4,1.7
		c3.1,0.5,21,1.5,21.3-4.1c-0.7,0.1-0.1,1.5,0,0c-5.5,0.5-11.2,1.7-13.6,2.1c-1.8,0.3-3.6-1.5-5.9-2.3L31.9,54.3z M63.4,18.2
		c4.9-0.3,8.9,5.9,8.9,5.9s-4.1,6.5-8.5,6.4c-4.4-0.1-4.2-1.7-7.4-2.5C53.3,27.4,58.5,18.5,63.4,18.2z M62,21.4
		c0.7-0.9,2.5,2.6,2.7,0.3c0.1-0.8-0.2-1.2-3.2-1.1c-3,0-4.3,6.5-2.5,7.6c1.5,0.8,2.5,2.3,2.1,0.4C60.8,27,61,22.6,62,21.4z
		 M32.2,12.9c3.7,0,4.9,2.4,5,3.7c0.1,1.3-2.3,6.6-4.7,6.6c-1.1,0-4.1-1.6-4.4-4C27.7,16.5,30.2,12.9,32.2,12.9z M31.7,14.5
		c0.7-1-2.7,0.7-2.4,3.8c0.2,3.1,3.4,4.4,2.7,3.5c-2.5-3.4-0.7-7.9-1.3-6.6c0.7,0.5,2.1-0.6,0.5-0.9C31,14.3,31.6,14.6,31.7,14.5z
		 M35.6,15.3c-0.4,0-0.7,0.3-0.7,0.7c0,0.4,0.3,0.7,0.7,0.7c0.4,0,0.7-0.3,0.7-0.7C36.2,15.6,35.9,15.3,35.6,15.3z"/>
</g>
</svg>
